<?xml version="1.0" encoding="UTF-8"?>
<svg width="22px" height="16px" viewBox="0 0 22 16" version="1.1" xmlns="http://www.w3.org/2000/svg" xmlns:xlink="http://www.w3.org/1999/xlink">
    <!-- Generator: Sketch 47.1 (45422) - http://www.bohemiancoding.com/sketch -->
    <title>h2</title>
    <desc>Created with Sketch.</desc>
    <defs></defs>
    <g id="Stage" stroke="none" stroke-width="1" fill="none" fill-rule="evenodd">
        <g id="Artboard" transform="translate(-422.000000, -104.000000)" fill-rule="nonzero" fill="#3D80FF">
            <path d="M429.999533,111 L423.999533,111 L424,104.000067 L422,103.999933 L421.998934,119.999933 L423.998934,120.000067 L423.9994,113 L429.9994,113 L429.998934,119.999933 L431.998934,120.000067 L432,104.000067 L430,103.999933 L429.999533,111 Z M440.073947,114.643439 C438.220336,115.944404 437.368039,116.794782 437.098444,118 L444,118 L444,120 L434.998544,120 L434.998934,118.999611 C434.999965,116.348963 436.111244,114.98124 438.924986,113.006403 C439.042766,112.923797 439.042766,112.923797 439.15933,112.842053 C441.328418,111.319885 442,110.514644 442,109 L442,108.5 C442,107.119288 440.880712,106 439.5,106 C438.119288,106 437,107.119288 437,108.5 L437,110 L435,110 L435,108.5 C435,106.014719 437.014719,104 439.5,104 C441.985281,104 444,106.014719 444,108.5 L444,109 C444,111.377954 442.973466,112.60879 440.308181,114.479166 C440.190612,114.561616 440.190612,114.561616 440.073947,114.643439 Z" id="h2"></path>
        </g>
    </g>
</svg>
